<svg xmlns="http://www.w3.org/2000/svg" version="1.1" xmlns:xlink="http://www.w3.org/1999/xlink" xmlns:svgjs="http://svgjs.dev/svgjs" width="1000" height="282" viewBox="0 0 1000 282"><g transform="matrix(1,0,0,1,-0.6060507256977985,0.17044063483413652)"><svg viewBox="0 0 396 112" data-background-color="#97978d" preserveAspectRatio="xMidYMid meet" height="282" width="1000" xmlns="http://www.w3.org/2000/svg" xmlns:xlink="http://www.w3.org/1999/xlink"><g id="tight-bounds" transform="matrix(1,0,0,1,0.2400032426701273,-0.06769273440221468)"><svg viewBox="0 0 395.52 112.1353770326035" height="112.1353770326035" width="395.52"><g><svg viewBox="0 0 691.3690593139047 196.01266720985316" height="112.1353770326035" width="395.52"><g><rect width="12.790611153442196" height="170.19913216485077" x="249.57517288967142" y="12.906767522501198" fill="#ffffff" opacity="1" stroke-width="0" stroke="transparent" fill-opacity="1" class="rect-o-0" data-fill-palette-color="primary" rx="1%" id="o-0" data-palette-color="#ffffff"></rect></g><g transform="matrix(1,0,0,1,295.84905931390466,27.090028536238762)"><svg viewBox="0 0 395.52 141.83261013737564" height="141.83261013737564" width="395.52"><g><svg viewBox="0 0 395.52 141.83261013737564" height="141.83261013737564" width="395.52"><g><svg viewBox="0 0 395.52 141.83261013737564" height="141.83261013737564" width="395.52"><g transform="matrix(1,0,0,1,0,0)"><svg width="395.52" viewBox="2 -35.54999923706055 103.06999969482422 36.970001220703125" height="141.83261013737564" data-palette-color="#ffffff"><path d="M2-0.29L2-0.29 2.15-35.55Q12.99-35.45 18.9-30 24.8-24.56 24.8-14.06L24.8-14.06Q24.8-10.69 23.05-7.91 21.29-5.13 18.53-3.47 15.77-1.81 12.57-0.9 9.38 0 6.25 0L6.25 0Q4.3 0 2-0.29ZM5.66-3.27L5.66-3.27 6.49-3.27Q9.28-3.27 11.87-3.93 14.45-4.59 16.65-5.91 18.85-7.23 20.17-9.55 21.48-11.87 21.48-14.89L21.48-14.89Q21.48-18.99 19.02-23.22 16.55-27.44 13.06-30.05 9.57-32.67 6.59-32.67L6.59-32.67Q5.96-32.67 5.37-32.52L5.37-32.52Q5.37-29.59 5.66-3.27ZM28.76-10.4L28.76-10.4Q28.76-12.35 29.17-14.75 29.59-17.14 30.42-19.78 31.25-22.41 32.91-24.17 34.57-25.93 36.77-25.93L36.77-25.93Q41.45-25.93 44.28-21.7 47.12-17.48 47.12-12.3L47.12-12.3Q47.12-10.11 46.65-7.93 46.19-5.76 45.21-3.66 44.24-1.56 42.4-0.17 40.57 1.22 38.13 1.42L38.13 1.42Q33.64 0.83 31.2-2.42 28.76-5.66 28.76-10.4ZM37.06-23.39L37.06-23.39Q35.35-23.19 34.18-20.26 33.01-17.33 32.66-14.58 32.32-11.82 32.32-9.72L32.32-9.72Q32.32-6.98 34.01-4.66 35.69-2.34 37.79-2.34L37.79-2.34Q39.3-2.34 40.52-3.52 41.75-4.69 42.45-6.42 43.16-8.15 43.53-9.91 43.89-11.67 43.89-13.04L43.89-13.04Q43.89-17.04 42.09-20.02 40.28-23 37.06-23.39ZM67.52-24.22L67.52-24.22 67.28-22.12Q65.23-22.41 63.76-22.41L63.76-22.41Q60.4-22.41 58.2-20.39 56-18.36 55.2-15.6 54.39-12.84 54.39-9.47L54.39-9.47Q54.39-7.91 54.58-6.69 54.78-5.47 55.29-4.3 55.81-3.13 56.9-2.47 58-1.81 59.61-1.81L59.61-1.81Q61.76-1.81 65.08-2.64L65.08-2.64Q66.11-3.03 66.69-3.03L66.69-3.03Q67.87-3.03 68.11-0.29L68.11-0.29Q63.81 1.07 60.15 1.07L60.15 1.07Q54.83 1.07 52.95-1.54 51.07-4.15 51.07-10.01L51.07-10.01Q51.07-13.43 51.53-15.99 52-18.55 53.17-20.78 54.34-23 56.56-24.17 58.78-25.34 62.01-25.34L62.01-25.34Q65.62-25.34 67.52-24.22ZM83.93-23.63L83.93-23.63 84.47-21.44Q83.15-21.34 80.41-20.92 77.68-20.51 76.31-20.41L76.31-20.41Q76.56-18.7 76.6-15.92 76.65-13.13 76.73-11.11 76.8-9.08 77.17-7.06 77.53-5.03 78.68-3.96 79.83-2.88 81.78-2.88L81.78-2.88Q83.24-2.88 85.44-3.56L85.44-3.56Q86.37-1.76 86.81-0.93L86.81-0.93Q82.95 0.44 79 0.44L79 0.44Q77.53 0.44 76.46-0.44 75.38-1.32 74.8-2.64 74.21-3.96 73.85-5.98 73.48-8.01 73.38-9.81 73.28-11.62 73.28-13.96L73.28-13.96Q73.28-15.23 73.31-17.48 73.33-19.73 73.33-20.56L73.33-20.56Q72.84-20.51 71.04-20.48 69.23-20.46 68.94-20.46L68.94-20.46Q68.6-23.73 68.6-23.83L68.6-23.83Q68.94-23.73 69.72-23.73L69.72-23.73Q70.16-23.73 71.14-23.8 72.11-23.88 72.6-23.88L72.6-23.88Q72.8-23.88 73.11-23.85 73.43-23.83 73.53-23.83L73.53-23.83Q73.72-29.2 73.97-32.57L73.97-32.57 76.16-32.03Q76.21-30.86 76.24-29.52 76.26-28.17 76.29-26.54 76.31-24.9 76.31-24.02L76.31-24.02Q77.58-23.93 80.12-23.83 82.66-23.73 83.93-23.63ZM86.71-10.4L86.71-10.4Q86.71-12.35 87.12-14.75 87.54-17.14 88.37-19.78 89.2-22.41 90.86-24.17 92.52-25.93 94.72-25.93L94.72-25.93Q99.4-25.93 102.24-21.7 105.07-17.48 105.07-12.3L105.07-12.3Q105.07-10.11 104.6-7.93 104.14-5.76 103.16-3.66 102.19-1.56 100.36-0.17 98.53 1.22 96.08 1.42L96.08 1.42Q91.59 0.83 89.15-2.42 86.71-5.66 86.71-10.4ZM95.01-23.39L95.01-23.39Q93.3-23.19 92.13-20.26 90.96-17.33 90.62-14.58 90.27-11.82 90.27-9.72L90.27-9.72Q90.27-6.98 91.96-4.66 93.64-2.34 95.74-2.34L95.74-2.34Q97.26-2.34 98.48-3.52 99.7-4.69 100.41-6.42 101.11-8.15 101.48-9.91 101.85-11.67 101.85-13.04L101.85-13.04Q101.85-17.04 100.04-20.02 98.23-23 95.01-23.39Z" opacity="1" transform="matrix(1,0,0,1,0,0)" fill="#ffffff" class="undefined-text-0" data-fill-palette-color="primary" id="text-0"></path></svg></g></svg></g></svg></g></svg></g><g><svg viewBox="0 0 216.09189761888032 196.01266720985316" height="196.01266720985316" width="216.09189761888032"><g><svg xmlns="http://www.w3.org/2000/svg" xmlns:xlink="http://www.w3.org/1999/xlink" version="1.1" x="0" y="0" viewBox="5.001404285430908 9.178999900817871 89.9986572265625 81.63599395751953" enable-background="new 0 0 100 100" xml:space="preserve" height="196.01266720985316" width="216.09189761888032" class="icon-icon-0" data-fill-palette-color="accent" id="icon-0"><path d="M94.294 51.007c-2.905-4.205-9.241-0.065-15.946 4.318-1.861 1.217-3.746 2.391-5.586 3.405 0.715 0.273 1.297 0.609 1.76 0.951 1.619 1.203 2.59 3.064 2.66 5.103 0.146 4.348-3.422 6.58-6.933 8.19-3.472 1.594-9.032 1.771-13.938 1.926-1.01 0.033-1.998 0.064-2.94 0.105-4.799 0.221-8.357 1.553-8.394 1.564-0.162 0.061-0.327 0.09-0.491 0.09-0.559 0-1.086-0.338-1.295-0.891-0.271-0.715 0.085-1.515 0.799-1.785 0.16-0.063 3.986-1.504 9.256-1.744 0.956-0.043 1.956-0.074 2.979-0.107 4.645-0.146 9.906-0.313 12.871-1.674 3.902-1.793 5.395-3.355 5.317-5.58-0.024-0.699-0.257-2.018-1.543-2.975-0.834-0.619-2.287-1.187-4.706-1.012-0.998 0.364-1.96 0.639-2.863 0.776-7.503 1.154-13.994 0.494-19.829-2.633-0.453-0.244-1.023-0.595-1.699-1.007-5.716-3.495-19.102-11.686-31.958 1.173h-0.001c0 0.002-0.001 0.002-0.001 0.002l-6.098 6.151c-0.497 0.502-0.795 1.406-0.694 2.104l1.838 12.565 1.114 7.615c0.194 1.324 0.862 1.723 1.244 1.844 0.112 0.035 0.257 0.064 0.431 0.064 0.42 0 0.997-0.172 1.646-0.859 0.019-0.02 1.883-1.985 4.095-3.727 2.801-2.207 5.226-3.281 7.412-3.281 3.352 0 7.74 1.924 12.389 3.961 5.537 2.428 11.814 5.176 17.606 5.176 18.167 0 33.382-16.43 39.173-27.473C94.9 57.757 95.771 53.145 94.294 51.007z" fill="#ffffff" data-fill-palette-color="accent"></path><path d="M41.255 49.179h31.49c2.345 0 4.255-1.909 4.255-4.255v-31.49c0-2.346-1.91-4.255-4.255-4.255h-31.49C38.91 9.179 37 11.088 37 13.434v31.49C37 47.27 38.91 49.179 41.255 49.179zM44.753 24.948c0-0.458 0.373-0.829 0.831-0.829h6.357v-6.357c0-0.459 0.371-0.829 0.83-0.829h8.459c0.459 0 0.828 0.37 0.828 0.829v6.357h6.358c0.458 0 0.83 0.371 0.83 0.829v8.459c0 0.459-0.372 0.83-0.83 0.83h-6.358v6.358c0 0.459-0.369 0.829-0.828 0.829h-8.459c-0.459 0-0.83-0.37-0.83-0.829v-6.358h-6.357c-0.458 0-0.831-0.371-0.831-0.83V24.948z" fill="#ffffff" data-fill-palette-color="accent"></path></svg></g></svg></g></svg></g><defs></defs></svg><rect width="395.52" height="112.1353770326035" fill="none" stroke="none" visibility="hidden"></rect></g></svg></g></svg>